# Blender v2.81 (sub 16) OBJ File: ''
# www.blender.org
mtllib Relative_Right Coronary.mtl
o Right_Coronary
v -0.129095 -0.192390 0.225700
v -0.130731 -0.194627 0.225707
v -0.129291 -0.195527 0.225886
v -0.123477 -0.168276 0.233128
v -0.130489 -0.177295 0.233102
v -0.130029 -0.176304 0.233031
v -0.125658 -0.193287 0.225717
v -0.117119 -0.181743 0.233001
v -0.117115 -0.181743 0.233250
v -0.116879 -0.180750 0.233125
v -0.153449 -0.146465 0.237373
v -0.151390 -0.147986 0.234786
v -0.145500 -0.144213 0.234650
v -0.165835 -0.147162 0.234199
v -0.167897 -0.149479 0.233272
v -0.168687 -0.149697 0.237540
v -0.131191 -0.177332 0.233161
v -0.151253 -0.142397 0.234740
v -0.159018 -0.143408 0.233149
v -0.158152 -0.144233 0.235890
v -0.116828 -0.187163 0.233111
v -0.154113 -0.143319 0.231606
v -0.154850 -0.146744 0.231588
v -0.160890 -0.145198 0.232176
v -0.102655 -0.186260 0.225817
v -0.102644 -0.185309 0.225794
v -0.102811 -0.186260 0.225858
v -0.102906 -0.186260 0.225767
v -0.102831 -0.186622 0.225791
v -0.169208 -0.157084 0.230901
v -0.163335 -0.148248 0.231398
v -0.162223 -0.154694 0.230711
v -0.149299 -0.156738 0.241718
v -0.152272 -0.155530 0.236649
v -0.152327 -0.151757 0.239810
v -0.152726 -0.176448 0.236657
v -0.150154 -0.173779 0.234652
v -0.145850 -0.172994 0.239057
v -0.158633 -0.165767 0.248333
v -0.155850 -0.163602 0.249873
v -0.161763 -0.162444 0.252135
v -0.169141 -0.168300 0.229542
v -0.161466 -0.167349 0.230214
v -0.161365 -0.171821 0.229513
v -0.173689 -0.179898 0.228704
v -0.168850 -0.180627 0.231188
v -0.169811 -0.172222 0.237057
v -0.140169 -0.168273 0.240011
v -0.144767 -0.167334 0.238719
v -0.147239 -0.163955 0.242479
v -0.140841 -0.171647 0.240974
v -0.146410 -0.167987 0.242950
v -0.153458 -0.170409 0.242757
v -0.155929 -0.149110 0.240958
v -0.152067 -0.155148 0.245443
v -0.162982 -0.145188 0.235191
v -0.163228 -0.153779 0.248868
v -0.170736 -0.156416 0.247206
v -0.168263 -0.153784 0.247066
v -0.171105 -0.153242 0.241353
v -0.153719 -0.175703 0.231398
v -0.149686 -0.177134 0.233619
v -0.147838 -0.181897 0.233075
v -0.160193 -0.171051 0.241793
v -0.165249 -0.165408 0.248107
v -0.145736 -0.170877 0.237216
v -0.162848 -0.158768 0.230401
v -0.167742 -0.160613 0.229618
v -0.160329 -0.179247 0.234699
v -0.152077 -0.183499 0.233144
v -0.146793 -0.180804 0.233287
v -0.172706 -0.155170 0.235516
v -0.173939 -0.167406 0.233601
v -0.174423 -0.171282 0.233044
v -0.171627 -0.168202 0.239439
v -0.153075 -0.151622 0.235167
v -0.156379 -0.153159 0.232649
v -0.157133 -0.157007 0.232693
v -0.166347 -0.155906 0.250526
v -0.166024 -0.170103 0.241294
v -0.162158 -0.173525 0.238682
v -0.174172 -0.171365 0.228623
v -0.167793 -0.172762 0.227797
v -0.150296 -0.163187 0.236882
v -0.146085 -0.160223 0.240876
v -0.156212 -0.160436 0.251726
v -0.149511 -0.159530 0.245731
v -0.154259 -0.157256 0.249480
v -0.173344 -0.180911 0.224775
v -0.174983 -0.176591 0.224770
v -0.171457 -0.176574 0.224944
v -0.162683 -0.182101 0.230794
v -0.159372 -0.180349 0.229866
v -0.166773 -0.184722 0.226703
v -0.166371 -0.180902 0.226814
v -0.146441 -0.146118 0.233027
v -0.145906 -0.144710 0.231590
v -0.156390 -0.165114 0.232511
v -0.155467 -0.171339 0.231609
v -0.166074 -0.159324 0.252048
v -0.172841 -0.160603 0.245490
v -0.167991 -0.162595 0.249558
v -0.160980 -0.159982 0.256231
v -0.176705 -0.162684 0.237599
v -0.170689 -0.164799 0.245153
v -0.176481 -0.160053 0.234394
v -0.173543 -0.164529 0.231607
v -0.176159 -0.158306 0.237255
v -0.176148 -0.161539 0.240805
v -0.174229 -0.156992 0.241722
v -0.160482 -0.157345 0.252419
v -0.157065 -0.154342 0.248513
v -0.151607 -0.162721 0.247687
v -0.152077 -0.165471 0.246441
v -0.141479 -0.139414 0.233045
v -0.137031 -0.144736 0.234076
v -0.138667 -0.147140 0.233864
v -0.128687 -0.148770 0.233039
v -0.139471 -0.143046 0.231882
v -0.149904 -0.182965 0.233440
v -0.177417 -0.175387 0.226145
v -0.176091 -0.178401 0.226166
v -0.176426 -0.176077 0.229073
v -0.176273 -0.173745 0.225909
v -0.176378 -0.172256 0.229651
v -0.169235 -0.183973 0.227501
v -0.165242 -0.147693 0.238596
v -0.150383 -0.172972 0.240414
v -0.138306 -0.169403 0.240603
v -0.140241 -0.169928 0.241580
v -0.123544 -0.153103 0.233821
v -0.116643 -0.159739 0.233118
v -0.118574 -0.155347 0.233304
v -0.144453 -0.139329 0.232705
v -0.116573 -0.157488 0.233106
v -0.169197 -0.183961 0.225050
v -0.160414 -0.176090 0.229163
v -0.170704 -0.184659 0.225326
v -0.173176 -0.160922 0.231221
v -0.174510 -0.158190 0.233295
v -0.137232 -0.147741 0.232079
v -0.119058 -0.155693 0.232634
v -0.129167 -0.153463 0.233230
v -0.141382 -0.146907 0.232598
v -0.167619 -0.187998 0.225214
vn -0.2436 0.9695 -0.0280
vn -0.9769 -0.2087 -0.0457
vn -0.0192 -0.9940 0.1070
vn 0.6316 0.7752 0.0036
vn 0.2951 -0.9544 -0.0441
vn -0.0880 0.0759 -0.9932
vn 0.9832 0.1823 -0.0118
vn -0.5658 0.0893 -0.8197
vn -0.5407 0.0855 0.8368
vn 0.1531 0.9882 0.0004
vn 0.3920 0.4539 0.8002
vn 0.7488 -0.6611 -0.0477
vn 0.1188 -0.1345 0.9837
vn -0.5835 0.7710 -0.2548
vn -0.6515 0.5564 -0.5156
vn -0.6830 0.7209 0.1177
vn -0.8540 -0.5166 0.0607
vn -0.0507 0.6725 0.7383
vn -0.3157 0.9223 -0.2227
vn -0.1025 0.8457 0.5238
vn 0.0382 -0.9992 -0.0021
vn -0.1303 0.3882 -0.9123
vn 0.1721 -0.1691 -0.9704
vn -0.3254 0.5716 -0.7532
vn 0.9788 -0.2046 -0.0061
vn 0.1492 0.9886 -0.0195
vn -0.2561 -0.0240 0.9663
vn -0.9036 0.0197 -0.4279
vn -0.1019 -0.9929 -0.0609
vn -0.3274 0.3270 -0.8865
vn -0.2600 0.3550 -0.8979
vn 0.1240 0.0298 -0.9918
vn 0.7938 0.6004 0.0962
vn 0.7798 0.1721 -0.6019
vn 0.8816 0.4298 0.1952
vn 0.2411 -0.5970 0.7651
vn 0.7524 -0.2080 -0.6249
vn 0.4019 -0.9094 -0.1072
vn 0.0668 -0.7375 0.6720
vn 0.3128 -0.5694 0.7602
vn -0.0935 -0.7332 0.6735
vn -0.1447 0.2575 -0.9554
vn 0.2282 0.1108 -0.9673
vn 0.2391 0.1749 -0.9551
vn -0.6002 -0.6033 0.5252
vn -0.3004 -0.6460 0.7017
vn -0.4451 -0.5842 0.6785
vn 0.7458 0.5867 -0.3154
vn 0.4441 0.5388 -0.7158
vn 0.8996 0.1898 0.3933
vn 0.5545 -0.8191 0.1466
vn 0.3199 -0.1095 0.9411
vn 0.0636 -0.6665 0.7428
vn 0.3552 0.6983 0.6214
vn 0.6427 0.5882 0.4908
vn -0.4279 0.8984 0.0987
vn -0.0526 0.7762 0.6283
vn -0.7110 0.3790 0.5923
vn -0.4498 0.7242 0.5227
vn -0.6983 0.6778 0.2298
vn 0.4246 0.1737 -0.8885
vn 0.8804 0.4296 -0.2010
vn 0.7158 -0.6333 -0.2943
vn -0.0954 -0.7552 0.6485
vn -0.2433 -0.7366 0.6310
vn 0.5469 -0.1577 -0.8222
vn 0.1883 0.0871 -0.9782
vn -0.0853 0.1452 -0.9857
vn -0.1458 -0.6264 0.7657
vn 0.0934 -0.9946 0.0451
vn 0.9826 -0.1271 -0.1351
vn -0.7174 0.6328 -0.2915
vn -0.9725 -0.1190 -0.2003
vn -0.9073 -0.0404 0.4185
vn -0.6403 -0.5857 0.4969
vn 0.8280 -0.2611 -0.4963
vn 0.5068 -0.1933 -0.8401
vn 0.4788 -0.0007 -0.8779
vn -0.3536 0.5385 0.7648
vn -0.2942 -0.7425 0.6018
vn -0.1616 -0.6760 0.7189
vn -0.3339 0.7738 -0.5382
vn 0.1808 0.3980 -0.8993
vn 0.6281 0.2138 -0.7482
vn 0.9799 0.1573 -0.1223
vn 0.5043 -0.0863 0.8592
vn 0.7664 0.2225 0.6026
vn 0.5441 0.4130 0.7303
vn -0.4085 -0.3226 -0.8538
vn -0.2616 0.0591 -0.9633
vn 0.1874 0.2419 -0.9520
vn 0.0918 -0.9901 0.1064
vn 0.2430 -0.3692 -0.8970
vn 0.7642 -0.6347 -0.1149
vn 0.5091 -0.0294 -0.8602
vn 0.1607 -0.9847 -0.0675
vn -0.0003 -0.2807 -0.9598
vn 0.4433 0.1378 -0.8857
vn 0.4132 0.1813 -0.8924
vn -0.4995 0.0132 0.8662
vn -0.7880 -0.1248 0.6029
vn -0.5154 -0.4535 0.7271
vn 0.0321 -0.0316 0.9990
vn -0.9552 -0.2859 0.0763
vn -0.6149 -0.5816 0.5325
vn -0.9025 0.1704 -0.3956
vn -0.6332 -0.1563 -0.7580
vn -0.8769 0.4804 0.0107
vn -0.8937 -0.1494 0.4229
vn -0.8152 0.4869 0.3136
vn 0.1350 0.6881 0.7129
vn 0.2868 0.7130 0.6398
vn 0.6340 -0.2309 0.7381
vn 0.4201 -0.4953 0.7603
vn 0.3201 0.9456 0.0583
vn 0.1607 0.1950 0.9675
vn -0.1637 -0.4135 0.8957
vn 0.5500 0.8351 0.0101
vn 0.1665 0.2403 -0.9563
vn 0.3276 -0.9049 0.2715
vn -0.9264 0.0044 -0.3766
vn -0.8356 -0.4956 -0.2368
vn -0.8169 -0.3248 0.4767
vn -0.4164 0.5847 -0.6962
vn -0.8401 0.5249 0.1369
vn -0.3078 -0.6823 0.6631
vn -0.4032 0.8319 0.3811
vn 0.0595 -0.7277 0.6833
vn 0.9863 0.1354 -0.0942
vn 0.3605 0.0505 0.9314
vn 0.1303 0.1748 0.9759
vn 0.5674 -0.8233 0.0142
vn 0.6444 0.6718 0.3651
vn -0.0589 0.9692 -0.2389
vn 0.9831 0.1796 0.0357
vn 0.2300 -0.0103 -0.9731
vn 0.3083 0.0576 -0.9495
vn -0.6100 -0.6913 -0.3873
vn -0.4837 0.1216 -0.8667
vn -0.6169 0.5228 -0.5882
vn -0.0891 -0.2562 -0.9625
vn 0.2637 0.2747 -0.9246
vn -0.4237 -0.8793 0.2175
vn -0.2313 -0.9342 -0.2714
vn 0.2897 -0.9250 -0.2459
usemtl None
s 1
f 1//1 2//2 3//3
f 4//4 5//5 6//6
f 3//3 7//7 1//1
f 8//8 9//9 10//10
f 3//3 2//2 7//7
f 11//11 12//12 13//13
f 14//14 15//15 16//16
f 5//5 4//4 17//17
f 18//18 19//19 20//20
f 9//9 21//21 10//10
f 6//6 5//5 17//17
f 22//22 23//23 24//24
f 9//9 8//8 21//21
f 21//21 8//8 10//10
f 1//1 7//7 2//2
f 25//25 26//26 27//27
f 28//28 26//26 25//25
f 27//27 28//28 29//29
f 6//6 17//17 4//4
f 28//28 27//27 26//26
f 30//30 31//31 32//32
f 33//33 34//34 35//35
f 36//36 37//37 38//38
f 39//39 40//40 41//41
f 42//42 43//43 44//44
f 45//45 46//46 47//47
f 48//48 49//49 50//50
f 51//51 52//52 53//53
f 54//54 55//55 35//35
f 56//56 20//20 19//19
f 54//54 20//20 57//57
f 58//58 59//59 60//60
f 61//61 62//62 63//63
f 64//64 39//39 65//65
f 49//49 48//48 66//66
f 67//67 43//43 68//68
f 36//36 69//69 70//70
f 36//36 71//71 62//62
f 72//72 15//15 30//30
f 73//73 74//74 75//75
f 12//12 35//35 76//76
f 32//32 77//77 78//78
f 79//79 59//59 58//58
f 80//80 47//47 81//81
f 82//82 73//73 42//42
f 82//82 42//42 83//83
f 50//50 84//84 85//85
f 86//86 87//87 88//88
f 89//89 90//90 91//91
f 92//92 93//93 70//70
f 94//94 95//95 92//92
f 46//46 81//81 47//47
f 24//24 23//23 31//31
f 24//24 31//31 14//14
f 23//23 96//96 12//12
f 23//23 12//12 77//77
f 13//13 12//12 96//96
f 22//22 97//97 23//23
f 98//98 49//49 66//66
f 99//99 37//37 61//61
f 100//100 101//101 102//102
f 103//103 41//41 86//86
f 104//104 73//73 75//75
f 101//101 105//105 102//102
f 106//106 107//107 73//73
f 106//106 73//73 104//104
f 108//108 109//109 110//110
f 72//72 16//16 15//15
f 101//101 110//110 109//109
f 101//101 109//109 75//75
f 84//84 78//78 34//34
f 84//84 34//34 85//85
f 11//11 54//54 35//35
f 11//11 35//35 12//12
f 111//111 86//86 88//88
f 111//111 112//112 57//57
f 50//50 113//113 114//114
f 52//52 114//114 53//53
f 23//23 77//77 32//32
f 23//23 32//32 31//31
f 92//92 70//70 69//69
f 92//92 69//69 46//46
f 18//18 11//11 13//13
f 115//115 13//13 116//116
f 116//116 13//13 117//117
f 118//118 119//119 115//115
f 63//63 62//62 71//71
f 120//120 71//71 36//36
f 121//121 122//122 123//123
f 82//82 74//74 73//73
f 124//124 125//125 82//82
f 124//124 82//82 83//83
f 52//52 48//48 50//50
f 52//52 50//50 114//114
f 34//34 78//78 77//77
f 76//76 77//77 12//12
f 42//42 73//73 107//107
f 68//68 30//30 67//67
f 126//126 92//92 46//46
f 126//126 46//46 45//45
f 127//127 20//20 56//56
f 127//127 14//14 16//16
f 15//15 14//14 31//31
f 15//15 31//31 30//30
f 33//33 35//35 55//55
f 85//85 87//87 50//50
f 36//36 38//38 128//128
f 36//36 128//128 64//64
f 129//129 130//130 51//51
f 48//48 51//51 66//66
f 37//37 99//99 66//66
f 37//37 66//66 38//38
f 38//38 66//66 51//51
f 38//38 51//51 128//128
f 131//131 132//132 133//133
f 116//116 118//118 115//115
f 115//115 119//119 134//134
f 115//115 18//18 13//13
f 96//96 23//23 97//97
f 132//132 135//135 133//133
f 11//11 18//18 20//20
f 11//11 20//20 54//54
f 59//59 79//79 57//57
f 127//127 57//57 20//20
f 111//111 57//57 79//79
f 103//103 100//100 41//41
f 98//98 66//66 99//99
f 98//98 43//43 67//67
f 44//44 99//99 61//61
f 91//91 95//95 136//136
f 95//95 91//91 93//93
f 95//95 93//93 92//92
f 93//93 91//91 137//137
f 93//93 137//137 63//63
f 81//81 46//46 69//69
f 81//81 69//69 36//36
f 91//91 124//124 83//83
f 91//91 83//83 137//137
f 43//43 98//98 99//99
f 43//43 99//99 44//44
f 60//60 127//127 16//16
f 60//60 16//16 72//72
f 87//87 33//33 55//55
f 87//87 55//55 88//88
f 112//112 55//55 54//54
f 112//112 54//54 57//57
f 75//75 74//74 47//47
f 75//75 47//47 80//80
f 123//123 47//47 74//74
f 123//123 125//125 121//121
f 138//138 45//45 122//122
f 136//136 89//89 91//91
f 139//139 140//140 30//30
f 139//139 30//30 68//68
f 108//108 110//110 72//72
f 140//140 72//72 30//30
f 103//103 86//86 111//111
f 103//103 111//111 100//100
f 74//74 82//82 125//125
f 74//74 125//125 123//123
f 141//141 142//142 132//132
f 117//117 143//143 131//131
f 37//37 36//36 62//62
f 37//37 62//62 61//61
f 42//42 107//107 68//68
f 42//42 68//68 43//43
f 100//100 111//111 79//79
f 100//100 79//79 58//58
f 101//101 100//100 58//58
f 101//101 58//58 110//110
f 112//112 111//111 88//88
f 112//112 88//88 55//55
f 65//65 39//39 41//41
f 102//102 41//41 100//100
f 96//96 97//97 144//144
f 96//96 117//117 13//13
f 86//86 41//41 40//40
f 86//86 40//40 113//113
f 123//123 122//122 45//45
f 123//123 45//45 47//47
f 136//136 95//95 94//94
f 138//138 126//126 45//45
f 144//144 143//143 117//117
f 144//144 117//117 96//96
f 106//106 104//104 108//108
f 140//140 108//108 72//72
f 121//121 125//125 124//124
f 121//121 90//90 122//122
f 124//124 91//91 90//90
f 124//124 90//90 121//121
f 87//87 86//86 113//113
f 87//87 113//113 50//50
f 53//53 114//114 39//39
f 53//53 39//39 64//64
f 114//114 113//113 40//40
f 114//114 40//40 39//39
f 85//85 34//34 33//33
f 85//85 33//33 87//87
f 119//119 141//141 97//97
f 119//119 97//97 22//22
f 142//142 133//133 135//135
f 142//142 135//135 132//132
f 119//119 118//118 142//142
f 119//119 142//142 141//141
f 144//144 97//97 141//141
f 144//144 141//141 143//143
f 104//104 75//75 109//109
f 104//104 109//109 108//108
f 65//65 41//41 102//102
f 65//65 102//102 105//105
f 75//75 80//80 105//105
f 75//75 105//105 101//101
f 134//134 119//119 22//22
f 134//134 22//22 19//19
f 106//106 108//108 140//140
f 106//106 140//140 139//139
f 34//34 77//77 76//76
f 34//34 76//76 35//35
f 110//110 58//58 60//60
f 110//110 60//60 72//72
f 19//19 22//22 24//24
f 19//19 24//24 56//56
f 59//59 57//57 127//127
f 59//59 127//127 60//60
f 56//56 24//24 14//14
f 56//56 14//14 127//127
f 98//98 67//67 78//78
f 98//98 78//78 84//84
f 70//70 93//93 63//63
f 120//120 63//63 71//71
f 120//120 36//36 70//70
f 120//120 70//70 63//63
f 83//83 42//42 44//44
f 83//83 44//44 137//137
f 129//129 51//51 48//48
f 129//129 48//48 130//130
f 52//52 51//51 130//130
f 52//52 130//130 48//48
f 116//116 117//117 131//131
f 116//116 131//131 118//118
f 133//133 142//142 118//118
f 133//133 118//118 131//131
f 61//61 63//63 137//137
f 61//61 137//137 44//44
f 65//65 105//105 80//80
f 65//65 80//80 64//64
f 139//139 68//68 107//107
f 139//139 107//107 106//106
f 132//132 131//131 143//143
f 132//132 143//143 141//141
f 84//84 50//50 49//49
f 84//84 49//49 98//98
f 134//134 19//19 18//18
f 134//134 18//18 115//115
f 25//25 27//27 29//29
f 25//25 29//29 28//28
f 94//94 92//92 126//126
f 94//94 126//126 145//145
f 89//89 138//138 122//122
f 89//89 122//122 90//90
f 138//138 89//89 136//136
f 145//145 136//136 94//94
f 145//145 126//126 138//138
f 145//145 138//138 136//136
f 32//32 78//78 67//67
f 32//32 67//67 30//30
f 81//81 36//36 64//64
f 81//81 64//64 80//80
f 128//128 51//51 53//53
f 128//128 53//53 64//64
